<svg width="296" height="296" viewBox="0 0 296 296" fill="none" xmlns="http://www.w3.org/2000/svg">
<g filter="url(#filter0_d)">
<path d="M148 243C200.467 243 243 200.467 243 148C243 95.5329 200.467 53 148 53C95.5329 53 53 95.5329 53 148C53 200.467 95.5329 243 148 243Z" fill="#3DEE8A"/>
<g opacity="0.5" filter="url(#filter1_f)">
<path d="M148.5 236C190.75 236 225 209.809 225 177.5C225 145.191 190.75 119 148.5 119C106.25 119 72 145.191 72 177.5C72 209.809 106.25 236 148.5 236Z" fill="url(#paint0_linear)"/>
</g>
<g opacity="0.7" filter="url(#filter2_f)">
<path d="M148.5 179C190.75 179 225 152.809 225 120.5C225 88.1913 190.75 62 148.5 62C106.25 62 72 88.1913 72 120.5C72 152.809 106.25 179 148.5 179Z" fill="url(#paint1_linear)"/>
</g>
<g style="mix-blend-mode:multiply" opacity="0.5" filter="url(#filter3_i)">
<path d="M148 238C197.706 238 238 197.706 238 148C238 98.2944 197.706 58 148 58C98.2944 58 58 98.2944 58 148C58 197.706 98.2944 238 148 238Z" fill="white"/>
</g>
<path d="M148 243C200.467 243 243 200.467 243 148C243 95.5329 200.467 53 148 53C95.5329 53 53 95.5329 53 148C53 200.467 95.5329 243 148 243Z" stroke="url(#paint2_linear)" stroke-width="10"/>
<path opacity="0.3" d="M148 240.5C199.086 240.5 240.5 199.086 240.5 148C240.5 96.9137 199.086 55.5 148 55.5C96.9137 55.5 55.5 96.9137 55.5 148C55.5 199.086 96.9137 240.5 148 240.5Z" stroke="url(#paint3_linear)" stroke-width="5"/>
</g>
<defs>
<filter id="filter0_d" x="0" y="0" width="296" height="296" filterUnits="userSpaceOnUse" color-interpolation-filters="sRGB">
<feFlood flood-opacity="0" result="BackgroundImageFix"/>
<feColorMatrix in="SourceAlpha" type="matrix" values="0 0 0 0 0 0 0 0 0 0 0 0 0 0 0 0 0 0 127 0"/>
<feOffset/>
<feGaussianBlur stdDeviation="24"/>
<feColorMatrix type="matrix" values="0 0 0 0 0.239216 0 0 0 0 0.933333 0 0 0 0 0.541176 0 0 0 0.4 0"/>
<feBlend mode="normal" in2="BackgroundImageFix" result="effect1_dropShadow"/>
<feBlend mode="normal" in="SourceGraphic" in2="effect1_dropShadow" result="shape"/>
</filter>
<filter id="filter1_f" x="52" y="99" width="193" height="157" filterUnits="userSpaceOnUse" color-interpolation-filters="sRGB">
<feFlood flood-opacity="0" result="BackgroundImageFix"/>
<feBlend mode="normal" in="SourceGraphic" in2="BackgroundImageFix" result="shape"/>
<feGaussianBlur stdDeviation="10" result="effect1_foregroundBlur"/>
</filter>
<filter id="filter2_f" x="52" y="42" width="193" height="157" filterUnits="userSpaceOnUse" color-interpolation-filters="sRGB">
<feFlood flood-opacity="0" result="BackgroundImageFix"/>
<feBlend mode="normal" in="SourceGraphic" in2="BackgroundImageFix" result="shape"/>
<feGaussianBlur stdDeviation="10" result="effect1_foregroundBlur"/>
</filter>
<filter id="filter3_i" x="58" y="58" width="180" height="180" filterUnits="userSpaceOnUse" color-interpolation-filters="sRGB">
<feFlood flood-opacity="0" result="BackgroundImageFix"/>
<feBlend mode="normal" in="SourceGraphic" in2="BackgroundImageFix" result="shape"/>
<feColorMatrix in="SourceAlpha" type="matrix" values="0 0 0 0 0 0 0 0 0 0 0 0 0 0 0 0 0 0 127 0" result="hardAlpha"/>
<feOffset/>
<feGaussianBlur stdDeviation="7.5"/>
<feComposite in2="hardAlpha" operator="arithmetic" k2="-1" k3="1"/>
<feColorMatrix type="matrix" values="0 0 0 0 0 0 0 0 0 0 0 0 0 0 0 0 0 0 1 0"/>
<feBlend mode="normal" in2="shape" result="effect1_innerShadow"/>
</filter>
<linearGradient id="paint0_linear" x1="148.5" y1="236" x2="148.5" y2="119" gradientUnits="userSpaceOnUse">
<stop/>
<stop offset="1" stop-opacity="0"/>
</linearGradient>
<linearGradient id="paint1_linear" x1="148.5" y1="61" x2="148.5" y2="179" gradientUnits="userSpaceOnUse">
<stop stop-color="white"/>
<stop offset="1" stop-color="white" stop-opacity="0"/>
</linearGradient>
<linearGradient id="paint2_linear" x1="243" y1="243" x2="53" y2="53" gradientUnits="userSpaceOnUse">
<stop stop-color="#A38D5B"/>
<stop offset="0.169053" stop-color="#C3A767"/>
<stop offset="0.26637" stop-color="#ECD39A"/>
<stop offset="0.37141" stop-color="#A38D5B"/>
<stop offset="0.515806" stop-color="#C3A767"/>
<stop offset="0.597814" stop-color="#ECD39A"/>
<stop offset="0.692987" stop-color="#C3A767"/>
<stop offset="0.747494" stop-color="#ECD39A"/>
<stop offset="0.825461" stop-color="#C3A767"/>
<stop offset="0.896021" stop-color="#ECD39A"/>
<stop offset="1" stop-color="#C3A767"/>
</linearGradient>
<linearGradient id="paint3_linear" x1="148" y1="138.514" x2="148" y2="240.5" gradientUnits="userSpaceOnUse">
<stop/>
<stop offset="1" stop-color="white"/>
</linearGradient>
</defs>
</svg>
