<svg width="240" height="240" viewBox="0 0 240 240" fill="none" xmlns="http://www.w3.org/2000/svg">
<g filter="url(#filter0_d)">
<g opacity="0.5" filter="url(#filter1_f)">
<path d="M120.5 208C162.75 208 197 181.809 197 149.5C197 117.191 162.75 91 120.5 91C78.2502 91 44 117.191 44 149.5C44 181.809 78.2502 208 120.5 208Z" fill="url(#paint0_linear)"/>
</g>
<g opacity="0.7" filter="url(#filter2_f)">
<path d="M120.5 151C162.75 151 197 124.809 197 92.5C197 60.1913 162.75 34 120.5 34C78.2502 34 44 60.1913 44 92.5C44 124.809 78.2502 151 120.5 151Z" fill="url(#paint1_linear)"/>
</g>
<g style="mix-blend-mode:multiply" opacity="0.5" filter="url(#filter3_i)">
<path d="M120 210C169.706 210 210 169.706 210 120C210 70.2944 169.706 30 120 30C70.2944 30 30 70.2944 30 120C30 169.706 70.2944 210 120 210Z" fill="white"/>
</g>
<path d="M120 215C172.467 215 215 172.467 215 120C215 67.5329 172.467 25 120 25C67.5329 25 25 67.5329 25 120C25 172.467 67.5329 215 120 215Z" stroke="url(#paint2_linear)" stroke-width="10"/>
<path opacity="0.3" d="M120 212.5C171.086 212.5 212.5 171.086 212.5 120C212.5 68.9137 171.086 27.5 120 27.5C68.9137 27.5 27.5 68.9137 27.5 120C27.5 171.086 68.9137 212.5 120 212.5Z" stroke="url(#paint3_linear)" stroke-width="5"/>
</g>
<defs>
<filter id="filter0_d" x="0" y="0" width="240" height="240" filterUnits="userSpaceOnUse" color-interpolation-filters="sRGB">
<feFlood flood-opacity="0" result="BackgroundImageFix"/>
<feColorMatrix in="SourceAlpha" type="matrix" values="0 0 0 0 0 0 0 0 0 0 0 0 0 0 0 0 0 0 127 0"/>
<feOffset/>
<feGaussianBlur stdDeviation="10"/>
<feColorMatrix type="matrix" values="0 0 0 0 0 0 0 0 0 0 0 0 0 0 0 0 0 0 0.25 0"/>
<feBlend mode="normal" in2="BackgroundImageFix" result="effect1_dropShadow"/>
<feBlend mode="normal" in="SourceGraphic" in2="effect1_dropShadow" result="shape"/>
</filter>
<filter id="filter1_f" x="24" y="71" width="193" height="157" filterUnits="userSpaceOnUse" color-interpolation-filters="sRGB">
<feFlood flood-opacity="0" result="BackgroundImageFix"/>
<feBlend mode="normal" in="SourceGraphic" in2="BackgroundImageFix" result="shape"/>
<feGaussianBlur stdDeviation="10" result="effect1_foregroundBlur"/>
</filter>
<filter id="filter2_f" x="24" y="14" width="193" height="157" filterUnits="userSpaceOnUse" color-interpolation-filters="sRGB">
<feFlood flood-opacity="0" result="BackgroundImageFix"/>
<feBlend mode="normal" in="SourceGraphic" in2="BackgroundImageFix" result="shape"/>
<feGaussianBlur stdDeviation="10" result="effect1_foregroundBlur"/>
</filter>
<filter id="filter3_i" x="30" y="30" width="180" height="180" filterUnits="userSpaceOnUse" color-interpolation-filters="sRGB">
<feFlood flood-opacity="0" result="BackgroundImageFix"/>
<feBlend mode="normal" in="SourceGraphic" in2="BackgroundImageFix" result="shape"/>
<feColorMatrix in="SourceAlpha" type="matrix" values="0 0 0 0 0 0 0 0 0 0 0 0 0 0 0 0 0 0 127 0" result="hardAlpha"/>
<feOffset/>
<feGaussianBlur stdDeviation="7.5"/>
<feComposite in2="hardAlpha" operator="arithmetic" k2="-1" k3="1"/>
<feColorMatrix type="matrix" values="0 0 0 0 0 0 0 0 0 0 0 0 0 0 0 0 0 0 1 0"/>
<feBlend mode="normal" in2="shape" result="effect1_innerShadow"/>
</filter>
<linearGradient id="paint0_linear" x1="120.5" y1="208" x2="120.5" y2="91" gradientUnits="userSpaceOnUse">
<stop/>
<stop offset="1" stop-opacity="0"/>
</linearGradient>
<linearGradient id="paint1_linear" x1="120.5" y1="33" x2="120.5" y2="151" gradientUnits="userSpaceOnUse">
<stop stop-color="white"/>
<stop offset="1" stop-color="white" stop-opacity="0"/>
</linearGradient>
<linearGradient id="paint2_linear" x1="215" y1="215" x2="25" y2="25" gradientUnits="userSpaceOnUse">
<stop stop-color="#A38D5B"/>
<stop offset="0.169053" stop-color="#C3A767"/>
<stop offset="0.26637" stop-color="#ECD39A"/>
<stop offset="0.37141" stop-color="#A38D5B"/>
<stop offset="0.515806" stop-color="#C3A767"/>
<stop offset="0.597814" stop-color="#ECD39A"/>
<stop offset="0.692987" stop-color="#C3A767"/>
<stop offset="0.747494" stop-color="#ECD39A"/>
<stop offset="0.825461" stop-color="#C3A767"/>
<stop offset="0.896021" stop-color="#ECD39A"/>
<stop offset="1" stop-color="#C3A767"/>
</linearGradient>
<linearGradient id="paint3_linear" x1="120" y1="110.514" x2="120" y2="212.5" gradientUnits="userSpaceOnUse">
<stop/>
<stop offset="1" stop-color="white"/>
</linearGradient>
</defs>
</svg>
