<svg width="107" height="45" viewBox="0 0 107 45" fill="none" xmlns="http://www.w3.org/2000/svg">
<rect y="3.05176e-05" width="107" height="45" rx="8" fill="url(#paint0_linear)"/>
<path d="M23.6754 31.336C22.3154 31.336 20.9954 31.168 19.7154 30.832C18.4354 30.496 17.3954 30.048 16.5954 29.488L18.1554 25.984C18.9074 26.48 19.7794 26.88 20.7714 27.184C21.7634 27.488 22.7394 27.64 23.6994 27.64C25.5234 27.64 26.4354 27.184 26.4354 26.272C26.4354 25.792 26.1714 25.44 25.6434 25.216C25.1314 24.976 24.2994 24.728 23.1474 24.472C21.8834 24.2 20.8274 23.912 19.9794 23.608C19.1314 23.288 18.4034 22.784 17.7954 22.096C17.1874 21.408 16.8834 20.48 16.8834 19.312C16.8834 18.288 17.1634 17.368 17.7234 16.552C18.2834 15.72 19.1154 15.064 20.2194 14.584C21.3394 14.104 22.7074 13.864 24.3234 13.864C25.4274 13.864 26.5154 13.992 27.5874 14.248C28.6594 14.488 29.6034 14.848 30.4194 15.328L28.9554 18.856C27.3554 17.992 25.8034 17.56 24.2994 17.56C23.3554 17.56 22.6674 17.704 22.2354 17.992C21.8034 18.264 21.5874 18.624 21.5874 19.072C21.5874 19.52 21.8434 19.856 22.3554 20.08C22.8674 20.304 23.6914 20.536 24.8274 20.776C26.1074 21.048 27.1634 21.344 27.9954 21.664C28.8434 21.968 29.5714 22.464 30.1794 23.152C30.8034 23.824 31.1154 24.744 31.1154 25.912C31.1154 26.92 30.8354 27.832 30.2754 28.648C29.7154 29.464 28.8754 30.12 27.7554 30.616C26.6354 31.096 25.2754 31.336 23.6754 31.336ZM46.9665 27.736H39.8625L38.5425 31H33.6945L41.1105 14.2H45.7905L53.2305 31H48.2865L46.9665 27.736ZM45.5745 24.232L43.4145 18.856L41.2545 24.232H45.5745ZM73.0802 14.2L65.8802 31H61.2002L54.0242 14.2H59.1602L63.7202 25.144L68.3762 14.2H73.0802ZM89.9516 27.328V31H76.4636V14.2H89.6396V17.872H81.1676V20.704H88.6316V24.256H81.1676V27.328H89.9516Z" fill="#222222"/>
<defs>
<linearGradient id="paint0_linear" x1="53.5" y1="3.05176e-05" x2="53.5" y2="45" gradientUnits="userSpaceOnUse">
<stop stop-color="#E6CE98"/>
<stop offset="1" stop-color="#C3A767"/>
</linearGradient>
</defs>
</svg>
