<svg width="208" height="56" viewBox="0 0 208 56" fill="none" xmlns="http://www.w3.org/2000/svg">
<rect width="208" height="56" rx="8" fill="url(#paint0_linear)"/>
<path d="M25.4932 39.948C23.6799 39.948 21.9199 39.724 20.2132 39.276C18.5066 38.828 17.1199 38.2307 16.0532 37.484L18.1332 32.812C19.1359 33.4733 20.2986 34.0067 21.6212 34.412C22.9439 34.8173 24.2452 35.02 25.5252 35.02C27.9572 35.02 29.1732 34.412 29.1732 33.196C29.1732 32.556 28.8212 32.0867 28.1172 31.788C27.4346 31.468 26.3252 31.1373 24.7892 30.796C23.1039 30.4333 21.6959 30.0493 20.5652 29.644C19.4346 29.2173 18.4639 28.5453 17.6532 27.628C16.8426 26.7107 16.4372 25.4733 16.4372 23.916C16.4372 22.5507 16.8106 21.324 17.5572 20.236C18.3039 19.1267 19.4132 18.252 20.8852 17.612C22.3786 16.972 24.2026 16.652 26.3572 16.652C27.8292 16.652 29.2799 16.8227 30.7092 17.164C32.1386 17.484 33.3972 17.964 34.4852 18.604L32.5332 23.308C30.3999 22.156 28.3306 21.58 26.3252 21.58C25.0666 21.58 24.1492 21.772 23.5732 22.156C22.9972 22.5187 22.7092 22.9987 22.7092 23.596C22.7092 24.1933 23.0506 24.6413 23.7332 24.94C24.4159 25.2387 25.5146 25.548 27.0292 25.868C28.7359 26.2307 30.1439 26.6253 31.2532 27.052C32.3839 27.4573 33.3546 28.1187 34.1652 29.036C34.9972 29.932 35.4132 31.1587 35.4132 32.716C35.4132 34.06 35.0399 35.276 34.2932 36.364C33.5466 37.452 32.4266 38.3267 30.9332 38.988C29.4399 39.628 27.6266 39.948 25.4932 39.948ZM45.9955 22.124H39.1155V17.1H59.1795V22.124H52.3315V39.5H45.9955V22.124ZM78.623 35.148H69.151L67.391 39.5H60.927L70.815 17.1H77.055L86.975 39.5H80.383L78.623 35.148ZM76.767 30.476L73.887 23.308L71.007 30.476H76.767ZM101.763 33.548H98.3072V39.5H91.9712V17.1H102.211C104.238 17.1 105.998 17.4413 107.491 18.124C108.985 18.7853 110.137 19.7453 110.947 21.004C111.758 22.2413 112.163 23.7027 112.163 25.388C112.163 27.0093 111.779 28.428 111.011 29.644C110.265 30.8387 109.187 31.7773 107.779 32.46L112.611 39.5H105.827L101.763 33.548ZM105.763 25.388C105.763 24.3427 105.433 23.532 104.771 22.956C104.11 22.38 103.129 22.092 101.827 22.092H98.3072V28.652H101.827C103.129 28.652 104.11 28.3747 104.771 27.82C105.433 27.244 105.763 26.4333 105.763 25.388ZM123.314 22.124H116.434V17.1H136.498V22.124H129.65V39.5H123.314V22.124Z" fill="#222222"/>
<path fill-rule="evenodd" clip-rule="evenodd" d="M177.993 18.7645L180.294 16.4631C181.075 15.6828 182.342 15.6854 183.12 16.463L184.537 17.8802C185.317 18.6604 185.323 19.9199 184.537 20.7058L182.236 23.0071C183.98 25.57 185 28.6659 185 32C185 40.8366 177.837 48 169 48C160.163 48 153 40.8366 153 32C153 23.8408 159.107 17.108 167 16.1238V14H165.009C163.899 14 163 13.1017 163 12.0021V9.99791C163 8.8945 163.902 8 165.009 8H172.991C174.101 8 175 8.89826 175 9.99791V12.0021C175 13.1055 174.098 14 172.991 14H171V16.1238C173.57 16.4443 175.951 17.3742 177.993 18.7645ZM169 44C175.627 44 181 38.6274 181 32C181 25.3726 175.627 20 169 20C162.373 20 157 25.3726 157 32C157 38.6274 162.373 44 169 44ZM169 22C167.888 22 167 22.8993 167 24.0085V31.9915C167 33.098 167.895 34 169 34C170.112 34 171 33.1007 171 31.9915V24.0085C171 22.902 170.105 22 169 22Z" fill="#222222"/>
<defs>
<linearGradient id="paint0_linear" x1="104" y1="0" x2="104" y2="56" gradientUnits="userSpaceOnUse">
<stop stop-color="#E6CE98"/>
<stop offset="1" stop-color="#C3A767"/>
</linearGradient>
</defs>
</svg>
