<svg width="192" height="45" viewBox="0 0 192 45" fill="none" xmlns="http://www.w3.org/2000/svg">
<rect width="192" height="45" rx="8" fill="url(#paint0_linear)"/>
<path d="M21.7419 17.968H16.5819V14.2H31.6299V17.968H26.4939V31H21.7419V17.968ZM43.1443 26.536H40.5523V31H35.8003V14.2H43.4803C45.0003 14.2 46.3203 14.456 47.4403 14.968C48.5603 15.464 49.4243 16.184 50.0323 17.128C50.6403 18.056 50.9443 19.152 50.9443 20.416C50.9443 21.632 50.6563 22.696 50.0803 23.608C49.5203 24.504 48.7123 25.208 47.6563 25.72L51.2803 31H46.1923L43.1443 26.536ZM46.1443 20.416C46.1443 19.632 45.8963 19.024 45.4003 18.592C44.9043 18.16 44.1683 17.944 43.1923 17.944H40.5523V22.864H43.1923C44.1683 22.864 44.9043 22.656 45.4003 22.24C45.8963 21.808 46.1443 21.2 46.1443 20.416ZM64.7316 24.976V31H59.9796V24.904L53.5716 14.2H58.5876L62.5716 20.872L66.5556 14.2H71.1636L64.7316 24.976ZM95.4126 27.736H88.3086L86.9886 31H82.1406L89.5566 14.2H94.2366L101.677 31H96.7326L95.4126 27.736ZM94.0206 24.232L91.8606 18.856L89.7006 24.232H94.0206ZM116.445 22.24H120.645V29.2C119.685 29.888 118.581 30.416 117.333 30.784C116.085 31.152 114.837 31.336 113.589 31.336C111.829 31.336 110.245 30.968 108.837 30.232C107.429 29.48 106.325 28.44 105.525 27.112C104.725 25.784 104.325 24.28 104.325 22.6C104.325 20.92 104.725 19.416 105.525 18.088C106.325 16.76 107.437 15.728 108.861 14.992C110.285 14.24 111.893 13.864 113.685 13.864C115.253 13.864 116.661 14.128 117.909 14.656C119.157 15.184 120.197 15.944 121.029 16.936L118.005 19.672C116.869 18.424 115.509 17.8 113.925 17.8C112.485 17.8 111.325 18.24 110.445 19.12C109.565 19.984 109.125 21.144 109.125 22.6C109.125 23.528 109.325 24.36 109.725 25.096C110.125 25.816 110.685 26.384 111.405 26.8C112.125 27.2 112.949 27.4 113.877 27.4C114.789 27.4 115.645 27.216 116.445 26.848V22.24ZM137.314 27.736H130.21L128.89 31H124.042L131.458 14.2H136.138L143.578 31H138.634L137.314 27.736ZM135.922 24.232L133.762 18.856L131.602 24.232H135.922ZM147.325 14.2H152.077V31H147.325V14.2ZM173.842 14.2V31H169.93L162.514 22.048V31H157.858V14.2H161.77L169.186 23.152V14.2H173.842Z" fill="#222222"/>
<defs>
<linearGradient id="paint0_linear" x1="96" y1="0" x2="96" y2="45" gradientUnits="userSpaceOnUse">
<stop stop-color="#E6CE98"/>
<stop offset="1" stop-color="#C3A767"/>
</linearGradient>
</defs>
</svg>
